<mxfile host="app.diagrams.net" modified="2023-12-02T17:53:14.190Z" agent="Mozilla/5.0 (Windows NT 10.0; Win64; x64) AppleWebKit/537.36 (KHTML, like Gecko) Chrome/119.0.0.0 Safari/537.36" etag="s0iPMeE5T3pJ-SpEUvHZ" version="22.1.5" type="device">
  <diagram name="Page-1" id="LTHMdqISfbTaaqZkhRda">
    <mxGraphModel dx="507" dy="563" grid="1" gridSize="10" guides="1" tooltips="1" connect="1" arrows="1" fold="1" page="1" pageScale="1" pageWidth="850" pageHeight="1100" math="0" shadow="0">
      <root>
        <mxCell id="0" />
        <mxCell id="1" parent="0" />
        <mxCell id="QGmQsI9SwYeN5P3YLtK5-1" value="" style="shape=umlLifeline;perimeter=lifelinePerimeter;whiteSpace=wrap;html=1;container=1;dropTarget=0;collapsible=0;recursiveResize=0;outlineConnect=0;portConstraint=eastwest;newEdgeStyle={&quot;curved&quot;:0,&quot;rounded&quot;:0};participant=umlActor;" vertex="1" parent="1">
          <mxGeometry x="250" y="40" width="20" height="360" as="geometry" />
        </mxCell>
        <mxCell id="QGmQsI9SwYeN5P3YLtK5-6" value="" style="html=1;points=[[0,0,0,0,5],[0,1,0,0,-5],[1,0,0,0,5],[1,1,0,0,-5]];perimeter=orthogonalPerimeter;outlineConnect=0;targetShapes=umlLifeline;portConstraint=eastwest;newEdgeStyle={&quot;curved&quot;:0,&quot;rounded&quot;:0};" vertex="1" parent="QGmQsI9SwYeN5P3YLtK5-1">
          <mxGeometry x="5" y="50" width="10" height="280" as="geometry" />
        </mxCell>
        <mxCell id="QGmQsI9SwYeN5P3YLtK5-3" value="Webpage" style="shape=umlLifeline;perimeter=lifelinePerimeter;whiteSpace=wrap;html=1;container=1;dropTarget=0;collapsible=0;recursiveResize=0;outlineConnect=0;portConstraint=eastwest;newEdgeStyle={&quot;curved&quot;:0,&quot;rounded&quot;:0};" vertex="1" parent="1">
          <mxGeometry x="330" y="40" width="100" height="360" as="geometry" />
        </mxCell>
        <mxCell id="QGmQsI9SwYeN5P3YLtK5-7" value="" style="html=1;points=[[0,0,0,0,5],[0,1,0,0,-5],[1,0,0,0,5],[1,1,0,0,-5]];perimeter=orthogonalPerimeter;outlineConnect=0;targetShapes=umlLifeline;portConstraint=eastwest;newEdgeStyle={&quot;curved&quot;:0,&quot;rounded&quot;:0};" vertex="1" parent="QGmQsI9SwYeN5P3YLtK5-3">
          <mxGeometry x="45" y="50" width="10" height="80" as="geometry" />
        </mxCell>
        <mxCell id="QGmQsI9SwYeN5P3YLtK5-4" value="Manager Dashboard" style="shape=umlLifeline;perimeter=lifelinePerimeter;whiteSpace=wrap;html=1;container=1;dropTarget=0;collapsible=0;recursiveResize=0;outlineConnect=0;portConstraint=eastwest;newEdgeStyle={&quot;curved&quot;:0,&quot;rounded&quot;:0};" vertex="1" parent="1">
          <mxGeometry x="450" y="40" width="100" height="360" as="geometry" />
        </mxCell>
        <mxCell id="QGmQsI9SwYeN5P3YLtK5-8" value="" style="html=1;points=[[0,0,0,0,5],[0,1,0,0,-5],[1,0,0,0,5],[1,1,0,0,-5]];perimeter=orthogonalPerimeter;outlineConnect=0;targetShapes=umlLifeline;portConstraint=eastwest;newEdgeStyle={&quot;curved&quot;:0,&quot;rounded&quot;:0};" vertex="1" parent="QGmQsI9SwYeN5P3YLtK5-4">
          <mxGeometry x="45" y="150" width="10" height="80" as="geometry" />
        </mxCell>
        <mxCell id="QGmQsI9SwYeN5P3YLtK5-5" value="Employee Dashboard" style="shape=umlLifeline;perimeter=lifelinePerimeter;whiteSpace=wrap;html=1;container=1;dropTarget=0;collapsible=0;recursiveResize=0;outlineConnect=0;portConstraint=eastwest;newEdgeStyle={&quot;curved&quot;:0,&quot;rounded&quot;:0};" vertex="1" parent="1">
          <mxGeometry x="570" y="40" width="100" height="360" as="geometry" />
        </mxCell>
        <mxCell id="QGmQsI9SwYeN5P3YLtK5-9" value="" style="html=1;points=[[0,0,0,0,5],[0,1,0,0,-5],[1,0,0,0,5],[1,1,0,0,-5]];perimeter=orthogonalPerimeter;outlineConnect=0;targetShapes=umlLifeline;portConstraint=eastwest;newEdgeStyle={&quot;curved&quot;:0,&quot;rounded&quot;:0};" vertex="1" parent="QGmQsI9SwYeN5P3YLtK5-5">
          <mxGeometry x="45" y="250" width="10" height="80" as="geometry" />
        </mxCell>
        <mxCell id="QGmQsI9SwYeN5P3YLtK5-10" value="Login to page" style="html=1;verticalAlign=bottom;endArrow=block;curved=0;rounded=0;" edge="1" parent="1">
          <mxGeometry width="80" relative="1" as="geometry">
            <mxPoint x="265" y="110" as="sourcePoint" />
            <mxPoint x="379.5" y="110" as="targetPoint" />
          </mxGeometry>
        </mxCell>
        <mxCell id="QGmQsI9SwYeN5P3YLtK5-11" value="Login success" style="html=1;verticalAlign=bottom;endArrow=open;dashed=1;endSize=8;curved=0;rounded=0;" edge="1" parent="1">
          <mxGeometry relative="1" as="geometry">
            <mxPoint x="375" y="160" as="sourcePoint" />
            <mxPoint x="265" y="160" as="targetPoint" />
          </mxGeometry>
        </mxCell>
        <mxCell id="QGmQsI9SwYeN5P3YLtK5-12" value="opt" style="shape=umlFrame;whiteSpace=wrap;html=1;pointerEvents=0;" vertex="1" parent="1">
          <mxGeometry x="190" y="170" width="490" height="230" as="geometry" />
        </mxCell>
        <mxCell id="QGmQsI9SwYeN5P3YLtK5-13" value="" style="line;strokeWidth=1;fillColor=none;align=left;verticalAlign=middle;spacingTop=-1;spacingLeft=3;spacingRight=3;rotatable=0;labelPosition=right;points=[];portConstraint=eastwest;strokeColor=inherit;" vertex="1" parent="1">
          <mxGeometry x="190" y="281" width="490" height="8" as="geometry" />
        </mxCell>
        <mxCell id="QGmQsI9SwYeN5P3YLtK5-14" value="[manager]" style="text;html=1;align=center;verticalAlign=middle;resizable=0;points=[];autosize=1;strokeColor=none;fillColor=none;" vertex="1" parent="1">
          <mxGeometry x="185" y="198" width="80" height="30" as="geometry" />
        </mxCell>
        <mxCell id="QGmQsI9SwYeN5P3YLtK5-15" value="[employee]" style="text;html=1;align=center;verticalAlign=middle;resizable=0;points=[];autosize=1;strokeColor=none;fillColor=none;" vertex="1" parent="1">
          <mxGeometry x="185" y="281" width="80" height="30" as="geometry" />
        </mxCell>
        <mxCell id="QGmQsI9SwYeN5P3YLtK5-16" value="Redirect to dashboard" style="html=1;verticalAlign=bottom;endArrow=block;curved=0;rounded=0;" edge="1" parent="1" target="QGmQsI9SwYeN5P3YLtK5-4">
          <mxGeometry width="80" relative="1" as="geometry">
            <mxPoint x="265" y="198" as="sourcePoint" />
            <mxPoint x="345" y="198" as="targetPoint" />
          </mxGeometry>
        </mxCell>
        <mxCell id="QGmQsI9SwYeN5P3YLtK5-17" value="Redirect to dashboard" style="html=1;verticalAlign=bottom;endArrow=block;curved=0;rounded=0;" edge="1" parent="1" target="QGmQsI9SwYeN5P3YLtK5-5">
          <mxGeometry width="80" relative="1" as="geometry">
            <mxPoint x="265" y="310" as="sourcePoint" />
            <mxPoint x="500" y="310" as="targetPoint" />
          </mxGeometry>
        </mxCell>
      </root>
    </mxGraphModel>
  </diagram>
</mxfile>
